<svg width="576" height="627" viewBox="0 0 576 627" fill="none" xmlns="http://www.w3.org/2000/svg">
<path opacity="0.38" d="M279.881 2.88122C440.275 11.5053 447.168 184.018 429.936 251.231C412.704 318.444 543.748 334.009 559.281 444.391C574.814 554.772 473.04 601.323 400.586 603.086C328.131 604.849 271.225 561.697 259.154 508.221C247.084 454.746 212.668 428.89 152.236 418.551C91.8031 408.211 -16.7829 327.181 2.19637 221.945C2.19637 221.945 6.63663 110.009 111.712 35.6782C182.388 -14.3989 279.881 2.88122 279.881 2.88122Z" fill="#E2E7FF"/>
<path d="M176.136 267.133C176.136 267.133 171.76 211.413 188.159 174.272C194.715 165.536 199.075 168.806 199.075 168.806C199.075 168.806 201.271 191.76 195.869 213.689C190.467 235.618 187.133 278.145 187.133 278.145L176.136 267.133Z" fill="#61A27D"/>
<path d="M172.866 262.773C172.866 262.773 171.76 236.548 144.461 213.609C117.162 190.671 111.68 190.655 111.68 190.655C111.68 190.655 133.529 189.565 148.821 199.407C164.114 209.249 169.58 236.548 170.67 240.924C171.76 245.3 178.316 262.773 178.316 262.773H172.866Z" fill="#578B71"/>
<path d="M190.579 266.78C190.579 266.78 195.693 241.133 226.213 222.586C256.734 204.039 262.136 204.953 262.136 204.953C262.136 204.953 240.72 200.497 224.097 207.855C207.474 215.212 197.857 241.373 196.109 245.525C194.362 249.676 185.177 265.931 185.177 265.931L190.579 266.78Z" fill="#578B71"/>
<path d="M178.316 262.773C178.316 262.773 149.911 168.806 124.793 146.957C125.883 143.751 155.378 153.513 164.114 177.542C172.85 201.571 175.046 237.638 178.316 247.48C180.48 253.819 183.034 260.019 185.962 266.043" fill="#7CC97D"/>
<path d="M176.136 267.133C176.136 267.133 187.069 215.837 215.474 198.301C217.654 204.857 185.963 258.397 189.249 282.441C192.535 306.486 176.136 267.133 176.136 267.133Z" fill="#7CC97D"/>
<path d="M160.539 325.08H202.553C205.134 307.56 207.362 291.802 207.715 285.775C208.179 276.383 206.312 267.021 202.281 258.525H160.812C156.781 267.021 154.914 276.383 155.378 285.775C155.778 291.738 157.958 307.448 160.539 325.08Z" fill="#A9A7E7"/>
<path d="M543.139 220.39H466.083V324.648H543.139V220.39Z" fill="#24ADB2"/>
<path d="M535.204 220.39H458.148V324.648H535.204V220.39Z" fill="#26C6DA"/>
<path d="M515.936 209.81H438.881V324.632H515.936V209.81Z" fill="#040929"/>
<path d="M508.002 209.81H419.613V324.632H508.002V209.81Z" fill="#9C31E9"/>
<path d="M508.017 209.81H492.901V324.632H508.017V209.81Z" fill="#150E42"/>
<path d="M66.8127 238.519C66.8127 238.519 54.7262 244.579 49.4364 261.939C44.1466 279.299 72.856 326.155 72.856 323.894C72.856 321.634 101.565 308.778 101.565 308.778L87.1385 255.88L66.8127 238.519Z" fill="#202F7C"/>
<path d="M368.735 330.21L352.769 288.036H312.871L328.836 330.21" fill="#4F57A0"/>
<path d="M223.953 296.387H450.823L454.783 275.116H227.912" fill="#E2E7FF"/>
<path d="M247.998 167.427L227.913 275.116H454.783L474.403 169.912C474.579 168.933 474.538 167.927 474.283 166.966C474.028 166.004 473.566 165.11 472.929 164.346C472.292 163.582 471.496 162.967 470.595 162.544C469.695 162.121 468.713 161.9 467.719 161.897H254.682C253.098 161.895 251.564 162.447 250.343 163.457C249.123 164.467 248.293 165.871 247.998 167.427Z" fill="#243FA7"/>
<path d="M359.741 314.998L419.805 270.242L360.88 266.844L305.352 309.9L359.741 314.998Z" fill="white"/>
<path d="M342.942 300.459L358.042 292.155C358.042 292.155 372.629 286.112 373.062 286.112C373.495 286.112 374.761 287.523 373.207 290.504C371.652 293.486 367.532 294.175 367.532 294.175L364.839 301.693L378.817 299.705L382.023 298.952C381.097 301.345 380.027 303.679 378.817 305.941C376.891 307.704 374.803 309.282 372.581 310.654C372.581 310.654 362.579 318.973 358.988 319.919C355.397 320.865 342.958 321.426 342.958 321.426L334.943 321.233L327.57 322.74C325.1 317.501 323.997 311.722 324.364 305.941L342.942 300.459Z" fill="#FF8D68"/>
<path d="M432.453 335.211L476.279 620.766H486.858L458.149 333.704L432.453 335.211Z" fill="#E2E7FF"/>
<path d="M521.611 335.211L565.42 620.766H576L547.291 333.704L521.611 335.211Z" fill="#E2E7FF"/>
<path d="M264.749 335.211L220.939 620.766H210.36L239.069 333.704L264.749 335.211Z" fill="#C2D3EB"/>
<path d="M175.607 335.211L131.782 620.766H121.218L149.911 333.704L175.607 335.211Z" fill="#C2D3EB"/>
<path d="M553.334 332.198H158.984V345.791H553.334V332.198Z" fill="#A9A7E7"/>
<path d="M560.884 338.225H171.071C169.068 338.225 167.148 337.429 165.732 336.013C164.316 334.597 163.521 332.677 163.521 330.675C163.521 328.672 164.316 326.752 165.732 325.336C167.148 323.92 169.068 323.125 171.071 323.125H560.884C562.886 323.125 564.807 323.92 566.223 325.336C567.639 326.752 568.434 328.672 568.434 330.675C568.434 332.677 567.639 334.597 566.223 336.013C564.807 337.429 562.886 338.225 560.884 338.225Z" fill="#3C3859"/>
<path d="M184.135 592.073C184.135 592.073 186.604 585.998 196.959 587.072C207.314 588.146 208.613 590.07 210.039 595.167C211.466 600.265 215.313 605.603 217.75 606.677C220.186 607.751 229.163 613.249 236.344 614.098C243.526 614.948 244.519 619.244 243.045 621.296C241.57 623.348 214.736 626.249 208.773 625.752C208.773 625.752 188.575 626.329 183.75 624.983C178.925 623.636 183.831 594.061 184.135 592.073Z" fill="#5E0E98"/>
<path d="M186.876 548.568L183.767 595.984C188.391 597.51 192.782 599.668 196.815 602.396C205.118 608.472 211.915 601.114 211.915 601.114L213.79 571.315L186.876 548.568Z" fill="#FF8D68"/>
<path d="M246.988 465.149L216.403 596.593C216.403 596.593 200.533 598.87 181.266 589.797C181.266 589.797 198.273 466.287 199.395 458.352C200.517 450.417 244.728 458.352 246.988 465.149Z" fill="#9C31E9"/>
<path d="M122.965 125.06C122.965 125.06 135.533 127.401 143.804 145.899C152.075 164.397 150.072 205.017 145.728 210.018C141.384 215.02 127.085 214.202 107 209.008C85.7921 203.542 77.3444 182.431 72.6957 168.437C63.7671 141.699 85.5997 112.076 122.965 125.06Z" fill="#FF8D68"/>
<path d="M88.1005 233.342L95.33 198.733C95.33 198.733 113.925 191.936 126.604 203.799L130.932 209.056L132.391 231.178C117.87 234.498 102.876 235.231 88.1005 233.342Z" fill="#FF8D68"/>
<path d="M87.6999 446.154C116.564 453.752 146.365 457.19 176.2 456.365C224.29 454.762 230.574 441.12 232.064 428.136C233.555 415.152 196.206 407.297 179.968 403.001C163.729 398.705 108.17 382.788 93.134 398.962C78.098 415.136 74.6195 435.077 87.6999 446.154Z" fill="#201360"/>
<path d="M296.311 592.073C296.311 592.073 298.796 585.998 309.135 587.072C319.474 588.146 320.773 590.07 322.216 595.167C323.658 600.265 327.489 605.603 329.91 606.677C332.33 607.751 341.339 613.249 348.504 614.098C355.67 614.948 356.696 619.244 355.205 621.296C353.714 623.348 326.912 626.249 320.933 625.752C320.933 625.752 300.752 626.329 295.927 624.983C291.102 623.636 296.007 594.061 296.311 592.073Z" fill="#5E0E98"/>
<path d="M284.385 552.031L295.719 598.101C295.719 598.101 304.791 595.84 310.145 600.377C315.499 604.913 325.245 601.884 325.245 601.884L316.942 565.624L284.385 552.031Z" fill="#FF8D68"/>
<path d="M190.707 397.92C192.984 397.92 270.039 423.568 285.139 434.933C300.255 447.019 324.428 581.67 325.935 584.699C327.442 587.729 304.022 596.032 288.922 593.756C288.169 590.743 252.663 477.235 252.663 469.685C252.663 469.685 192.23 466.656 166.534 462.119C140.839 457.583 123.478 456.846 112.899 428.89C102.319 400.934 164.194 398.673 164.194 398.673L190.707 397.92Z" fill="#9C31E9"/>
<path d="M322.536 298.567C322.536 298.567 337.267 298.198 338.405 299.705C339.544 301.212 344.817 314.805 339.912 320.544L335.761 323.477H322.937L322.536 298.567Z" fill="#E2E7FF"/>
<path d="M85.5198 228.309L89.4792 218.114C89.4792 218.114 113.283 210.756 133.673 219.813C137.119 223.616 139.811 228.038 141.608 232.845L85.5198 228.309Z" fill="#E2E7FF"/>
<path d="M80.4222 229.447C80.4222 229.447 83.4358 224.157 88.7256 223.403C94.0155 222.65 118.188 219.62 134.058 224.157C137.395 225.307 140.473 227.105 143.115 229.447C143.115 229.447 165.781 236.997 173.331 241.533C180.881 246.069 183.157 280.822 184.664 292.155C186.171 303.488 181.65 315.575 181.65 315.575C181.65 315.575 199.78 389.601 199.78 400.18C199.78 410.76 193.737 422.846 172.53 430.396C151.322 437.946 93.9834 434.933 74.3308 422.846C68.2876 410.76 59.2147 267.213 57.7079 253.62C56.2011 240.026 80.4222 229.447 80.4222 229.447Z" fill="#5E0E98"/>
<path d="M160.876 238.519C160.876 238.519 166.534 235.121 180.112 244.194C193.689 253.267 231.119 287.25 235.639 289.526C240.159 291.802 327.426 296.323 327.426 296.323C327.426 296.323 339.897 312.176 326.304 324.648C326.304 324.648 242.067 328.046 226.197 326.908C210.328 325.77 157.462 295.185 157.462 295.185C157.462 295.185 135.901 263.446 160.876 238.519Z" fill="#9C31E9"/>
<path d="M142.714 288.516C142.714 288.516 213.357 325.593 221.597 326.78C229.836 327.966 261.046 326.78 261.046 326.78" stroke="#1B2048" stroke-width="1.29399" stroke-miterlimit="10"/>
<path d="M238.075 297.926C238.075 297.926 240.432 310.878 232.192 318.541" stroke="#1B2048" stroke-width="1.29399" stroke-miterlimit="10"/>
<path d="M243.381 294.399C243.381 294.399 250.434 305.62 246.908 313.828" stroke="#1B2048" stroke-width="1.29399" stroke-miterlimit="10"/>
<path d="M142.121 273.785C142.121 273.785 136.238 253.171 156.836 239.641" stroke="#1B2048" stroke-width="1.29399" stroke-miterlimit="10"/>
<path d="M66.1716 254.373C66.1716 254.373 62.0519 290.873 62.0519 307.944" stroke="#1B2048" stroke-width="1.29399" stroke-miterlimit="10"/>
<path d="M87.3788 230.232C87.3788 230.232 114.453 227.876 136.831 230.232" stroke="#1B2048" stroke-width="1.29399" stroke-miterlimit="10"/>
<path d="M264.572 467.473C264.572 467.473 277.525 463.354 282.205 443.348" stroke="#1B2048" stroke-width="1.29399" stroke-miterlimit="10"/>
<path d="M273.405 469.237C273.405 469.237 281.051 466.896 284.626 456.285" stroke="#1B2048" stroke-width="1.29399" stroke-miterlimit="10"/>
<path d="M226.309 492.207L206.881 589.348" stroke="#1B2048" stroke-width="1.29399" stroke-miterlimit="10"/>
<path d="M141.047 149.554C141.602 152.735 141.265 156.009 140.074 159.011C138.883 162.013 136.884 164.626 134.298 166.562L134.875 177.879C134.875 177.879 138.274 188.09 136.013 189.212C133.753 190.334 133.176 188.651 133.176 188.651C133.176 188.651 125.802 176.756 123.558 176.179C121.314 175.602 128.656 192.049 128.656 192.049C128.656 192.049 121.298 203.382 107.689 205.081L110.526 201.122C105.676 203.764 100.164 204.945 94.6564 204.52C85.0386 203.943 77.6648 189.212 77.6648 189.212C77.6648 189.212 79.364 193.187 77.6648 194.886C75.9657 196.585 66.3318 181.854 65.7707 163.147L62.9334 168.822C63.5994 159.361 65.4962 150.028 68.5759 141.058C73.6734 126.327 96.3396 115.555 108.811 115.555C121.282 115.555 133.737 116.693 137.135 115.555C140.534 114.416 138.835 124.066 138.835 124.066C139.834 121.689 140.596 119.219 141.111 116.693C143.371 114.994 146.769 128.587 145.631 133.684L144.509 138.798C144.509 138.798 148.469 133.684 149.03 130.863C151.242 130.286 150.665 142.757 141.047 149.554Z" fill="#201360"/>
<path d="M132.823 177.782C132.823 177.782 130.531 170.2 124.248 174.192C117.964 178.183 126.892 196.04 132.15 194.501C137.408 192.963 134.202 180.668 132.823 177.782Z" fill="#FF634D"/>
<path d="M362.771 309.147L378.817 305.941L382.039 298.952" stroke="#E66657" stroke-width="1.99555" stroke-miterlimit="10"/>
<path d="M378.256 306.31C378.256 306.31 370.129 313.106 369.007 313.683C367.885 314.26 362.771 315.575 362.771 315.575" stroke="#E66657" stroke-width="1.99555" stroke-miterlimit="10"/>
<path d="M130.274 196.954C130.274 196.954 128.014 204.969 141.607 209.425" stroke="#E66657" stroke-width="1.99555" stroke-miterlimit="10"/>
<path d="M440.019 256.649H319.138L334.255 178.087H455.119L440.019 256.649Z" fill="#2E60BE"/>
<path d="M280.298 205.273C280.197 205.802 280.213 206.347 280.347 206.869C280.48 207.39 280.727 207.876 281.07 208.291C281.413 208.706 281.844 209.04 282.331 209.269C282.818 209.499 283.35 209.618 283.889 209.617H415.478C416.327 209.615 417.149 209.318 417.803 208.777C418.458 208.236 418.905 207.485 419.068 206.652L420.992 196.585H281.965L280.298 205.273Z" fill="#26C6F8"/>
<path d="M431.443 119.241H299.854C299.006 119.242 298.185 119.538 297.532 120.08C296.879 120.621 296.436 121.374 296.279 122.207L281.965 196.585H420.991L435.033 123.585C435.135 123.057 435.118 122.512 434.985 121.99C434.851 121.469 434.604 120.983 434.261 120.568C433.918 120.153 433.488 119.819 433 119.589C432.513 119.36 431.981 119.241 431.443 119.241Z" fill="#CAE5FF"/>
<path d="M341.484 209.666C343.215 204.857 344.289 201.474 344.289 201.474C344.289 201.474 348.248 180.732 330.567 186.054C326.209 189.837 323.073 194.831 321.559 200.4C320.661 203.414 319.587 206.652 318.545 209.666H341.484Z" fill="#387AB6"/>
<path d="M378.096 209.666C377.775 199.439 377.134 191.232 376.028 189.036C372.822 183.072 359.533 177.67 359.533 177.67L341.403 180.363C341.403 180.363 333.821 182.527 331.385 187.945C330.567 189.773 328.596 198.621 326.48 209.666H378.096Z" fill="#DCE4FF"/>
<path d="M344.497 165.391C343.817 170.176 342.641 174.877 340.986 179.417C340.986 179.417 340.329 184.018 349.979 182.046C359.629 180.075 358.299 175.25 358.299 175.25V156.19L344.497 165.391Z" fill="#FF8D68"/>
<path d="M330.952 145.338C330.952 145.338 331.065 163.468 336.274 172.204C339.817 175.875 351.935 170.104 357.033 162.314C362.13 154.523 362.018 142.789 357.995 136.265C353.971 129.741 340.682 131.697 336.787 133.957C332.892 136.217 330.728 142.437 330.952 145.338Z" fill="#FF8D68"/>
<path d="M355.51 155.581C355.51 155.581 358.924 150.307 361.216 153.449C363.509 156.591 355.574 163.067 354.965 160.566C354.657 158.887 354.847 157.154 355.51 155.581Z" fill="#FBA894"/>
<path d="M330.952 145.338C330.952 145.338 324.54 139.744 332.267 132.514C336.643 129.228 338.839 131.633 343.487 130.751C348.136 129.869 356.424 130.751 359.517 135.56C362.611 140.369 361.489 151.59 360.623 152.664C359.758 153.738 357.113 154.411 357.113 156.383C357.113 158.354 356.68 159.893 356.023 159.893C355.366 159.893 355.366 156.607 355.366 154.187C355.305 150.699 354.766 147.236 353.763 143.895C352.673 140.689 347.623 140.818 345.651 141.267C343.68 141.715 342.349 146.765 330.952 145.338Z" fill="#713336"/>
<path opacity="0.53" d="M354.836 150.788C354.955 150.726 355.078 150.672 355.205 150.628L354.836 150.788Z" fill="#505E83"/>
<path d="M355.205 150.628C355.205 150.98 356.391 161.48 352.224 164.397C348.056 167.315 347.719 163.596 344.289 163.051C340.859 162.506 338.069 162.698 336.531 164.942C334.992 167.187 335.44 168.148 334.19 167.555C333.918 168.277 335.793 172.701 338.695 173.871C341.596 175.041 348.441 171.435 351.518 168.742C354.596 166.048 356.472 164.317 357.017 161.977C357.562 159.637 357.289 155.116 357.914 151.958C358.267 149.57 356.087 150.259 355.205 150.628ZM339.48 169.992C335.328 169.094 335.873 165.84 340.105 164.494C340.105 164.494 344.626 162.426 346.148 165.584C346.725 167.651 343.568 170.906 339.48 169.992Z" fill="#713336"/>
<path d="M358.315 173.871C354.751 177.996 349.78 180.648 344.369 181.309C342.622 180.636 341.676 177.398 341.676 177.398L340.313 179.417C339.961 181.298 339.961 183.227 340.313 185.108C341.131 185.236 344.113 183.216 344.113 183.216C344.113 183.216 346.132 186.054 347.623 186.599C349.114 187.144 358.587 180.78 359.533 177.67C359.462 176.32 359.043 175.011 358.315 173.871Z" fill="white"/>
<path d="M379.554 209.666C379.09 199.583 378.48 191.889 377.951 190.286C375.787 185.236 367.676 178.744 359.645 177.67C359.645 177.67 356.632 191.584 353.666 209.73L379.554 209.666Z" fill="#387AB6"/>
<path d="M332.78 209.666C337.028 191.632 340.314 180.908 340.314 180.908C336.629 181.626 333.239 183.417 330.567 186.054C328.964 189.26 326.448 198.573 323.851 209.666H332.78Z" fill="#387AB6"/>
<path d="M377.855 209.666C378.16 200.048 377.615 191.087 376.028 189.035C370.898 184.691 365.48 184.964 362.771 189.837C361.296 192.498 359.341 201.795 357.85 209.666H377.855Z" fill="#387AB6"/>
<path d="M344.113 183.216C342.51 189.468 341.291 195.784 340.153 202.116" stroke="#87B8EB" stroke-width="0.56125" stroke-miterlimit="10"/>
<path d="M443.418 133.554C456.172 122.29 459.389 105.095 450.605 95.1486C441.82 85.2018 424.359 86.2693 411.606 97.533C398.852 108.797 395.635 125.991 404.419 135.938C413.204 145.885 430.664 144.817 443.418 133.554Z" fill="#6787FF"/>
<path d="M460.249 144.809C459.678 146.869 458.473 148.697 456.803 150.032C455.134 151.368 453.086 152.143 450.951 152.247C450.035 152.291 449.121 152.11 448.29 151.72C447.46 151.33 446.737 150.743 446.185 150.009C445.634 149.276 445.27 148.418 445.125 147.512C444.981 146.606 445.061 145.678 445.357 144.809C445.928 142.745 447.135 140.913 448.807 139.575C450.48 138.237 452.531 137.46 454.67 137.355C455.588 137.313 456.501 137.496 457.332 137.888C458.162 138.28 458.884 138.869 459.434 139.605C459.984 140.34 460.346 141.198 460.488 142.106C460.63 143.013 460.548 143.941 460.249 144.809Z" fill="#6787FF"/>
<path d="M420.511 129.404C420.104 129.418 419.699 129.336 419.33 129.167C418.96 128.997 418.634 128.744 418.379 128.427L411.358 119.049C410.922 118.258 410.801 117.332 411.018 116.456C411.235 115.58 411.774 114.817 412.528 114.32C412.838 114.009 413.206 113.761 413.612 113.593C414.018 113.424 414.453 113.337 414.892 113.337C415.332 113.337 415.767 113.424 416.173 113.593C416.578 113.761 416.947 114.009 417.257 114.32L422.514 121.325L441.301 106.305C441.61 105.977 441.983 105.716 442.396 105.537C442.81 105.359 443.255 105.267 443.706 105.267C444.156 105.267 444.602 105.359 445.015 105.537C445.429 105.716 445.801 105.977 446.11 106.305C446.572 107.105 446.706 108.052 446.485 108.949C446.264 109.845 445.704 110.621 444.924 111.114L423.188 128.507C422.423 129.101 421.479 129.418 420.511 129.404Z" fill="white"/>
<path d="M221.116 96.3188H212.219C211.719 96.3435 211.221 96.2453 210.768 96.0327C210.315 95.8201 209.92 95.4997 209.62 95.0994C209.319 94.6992 209.121 94.2314 209.044 93.7369C208.966 93.2425 209.01 92.7365 209.173 92.2633L211.402 83.3667C211.711 82.2476 212.365 81.2545 213.272 80.5292C214.179 79.8038 215.291 79.3832 216.451 79.3272H225.348C225.845 79.3024 226.342 79.4001 226.793 79.6118C227.245 79.8236 227.637 80.1429 227.936 80.5417C228.235 80.9405 228.432 81.4067 228.509 81.8992C228.586 82.3918 228.541 82.8957 228.377 83.3667L226.165 92.2633C225.857 93.3843 225.203 94.3795 224.296 95.1075C223.39 95.8356 222.277 96.2594 221.116 96.3188Z" stroke="#A9A7E7" stroke-width="1.16927" stroke-miterlimit="10"/>
<path d="M249.425 96.3189H240.528C240.03 96.3408 239.533 96.2406 239.082 96.0268C238.631 95.8131 238.239 95.4923 237.941 95.0925C237.642 94.6927 237.445 94.2259 237.368 93.7328C237.291 93.2397 237.336 92.7352 237.498 92.2633L239.711 83.3668C240.022 82.2488 240.677 81.2571 241.583 80.5321C242.49 79.8071 243.601 79.3856 244.76 79.3273H253.657C254.155 79.3036 254.651 79.4018 255.102 79.6136C255.554 79.8253 255.947 80.1441 256.247 80.5423C256.547 80.9404 256.745 81.4058 256.825 81.898C256.904 82.3903 256.862 82.8945 256.702 83.3668L254.522 92.2633C254.211 93.3918 253.55 94.3924 252.634 95.1212C251.718 95.85 250.594 96.2693 249.425 96.3189Z" fill="#26C6DA"/>
<path d="M277.733 96.3187H268.836C268.338 96.3406 267.841 96.2404 267.39 96.0266C266.939 95.8129 266.547 95.4921 266.249 95.0923C265.95 94.6925 265.754 94.2257 265.677 93.7326C265.599 93.2395 265.644 92.735 265.807 92.2631L268.019 83.3666C268.33 82.2486 268.985 81.2569 269.891 80.5319C270.798 79.8069 271.909 79.3854 273.068 79.3271H281.965C282.464 79.2994 282.962 79.3951 283.416 79.6057C283.869 79.8163 284.264 80.1353 284.565 80.5345C284.866 80.9337 285.064 81.4009 285.142 81.8949C285.219 82.3888 285.174 82.8942 285.01 83.3666L282.782 92.2631C282.478 93.3865 281.825 94.3845 280.918 95.1133C280.011 95.842 278.895 96.2641 277.733 96.3187Z" fill="white"/>
<path d="M214.447 123.009H205.534C205.036 123.034 204.54 122.936 204.089 122.724C203.637 122.512 203.245 122.193 202.946 121.794C202.647 121.395 202.45 120.929 202.373 120.437C202.296 119.944 202.341 119.44 202.505 118.969L204.717 110.073C205.026 108.949 205.683 107.952 206.592 107.224C207.502 106.496 208.618 106.073 209.782 106.017H218.679C219.177 105.995 219.674 106.095 220.125 106.309C220.576 106.523 220.968 106.844 221.266 107.243C221.565 107.643 221.761 108.11 221.839 108.603C221.916 109.096 221.871 109.601 221.708 110.073L219.496 118.969C219.185 120.087 218.53 121.079 217.623 121.804C216.717 122.529 215.606 122.95 214.447 123.009Z" fill="#26C6DA"/>
<path d="M207.346 151.526H198.417C197.919 151.551 197.423 151.453 196.972 151.241C196.52 151.029 196.128 150.71 195.829 150.311C195.53 149.912 195.333 149.446 195.256 148.954C195.179 148.461 195.224 147.957 195.388 147.486L197.6 138.59C197.908 137.469 198.562 136.473 199.469 135.745C200.375 135.017 201.488 134.594 202.649 134.534H211.546C212.046 134.509 212.544 134.608 212.997 134.82C213.45 135.033 213.844 135.353 214.145 135.754C214.446 136.154 214.643 136.622 214.721 137.116C214.799 137.61 214.754 138.116 214.591 138.59L212.363 147.486C212.056 148.6 211.406 149.59 210.506 150.315C209.605 151.04 208.5 151.463 207.346 151.526Z" fill="white"/>
<path d="M242.772 123.009H233.875C233.377 123.032 232.881 122.934 232.43 122.722C231.978 122.511 231.585 122.192 231.285 121.794C230.985 121.395 230.787 120.93 230.707 120.438C230.628 119.946 230.67 119.441 230.83 118.969L233.058 110.073C233.364 108.95 234.017 107.954 234.924 107.225C235.831 106.497 236.945 106.074 238.107 106.017H247.004C247.502 105.995 247.999 106.095 248.45 106.309C248.901 106.523 249.293 106.844 249.591 107.243C249.89 107.643 250.086 108.11 250.163 108.603C250.24 109.096 250.196 109.601 250.033 110.073L247.821 118.969C247.51 120.087 246.855 121.079 245.948 121.804C245.042 122.529 243.931 122.95 242.772 123.009Z" fill="#EDF4FF"/>
<path d="M230.365 172.797H221.468C220.97 172.819 220.473 172.719 220.022 172.505C219.571 172.291 219.179 171.97 218.881 171.571C218.582 171.171 218.386 170.704 218.309 170.211C218.232 169.718 218.276 169.213 218.439 168.741L220.651 159.845C220.962 158.727 221.617 157.735 222.524 157.01C223.43 156.285 224.541 155.864 225.7 155.805H234.597C235.095 155.782 235.591 155.88 236.042 156.092C236.494 156.303 236.887 156.622 237.187 157.02C237.487 157.418 237.685 157.884 237.765 158.376C237.844 158.868 237.802 159.372 237.642 159.845L235.414 168.741C235.106 169.862 234.452 170.858 233.545 171.586C232.639 172.314 231.526 172.737 230.365 172.797V172.797Z" stroke="#A9A7E7" stroke-width="1.16927" stroke-miterlimit="10"/>
<path d="M498.047 138.189H494.841C494.657 138.202 494.474 138.17 494.306 138.094C494.138 138.018 493.992 137.902 493.88 137.755C493.769 137.609 493.696 137.437 493.668 137.255C493.639 137.073 493.657 136.887 493.719 136.714L494.536 133.508C494.65 133.096 494.891 132.73 495.225 132.462C495.559 132.195 495.969 132.039 496.396 132.017H499.602C499.786 132.007 499.97 132.042 500.137 132.12C500.305 132.198 500.45 132.315 500.561 132.463C500.672 132.61 500.745 132.783 500.773 132.965C500.802 133.147 500.785 133.334 500.724 133.508L499.906 136.714C499.792 137.125 499.55 137.489 499.216 137.753C498.882 138.018 498.473 138.171 498.047 138.189Z" fill="#CAE5FF"/>
<path d="M495.658 147.774H492.452C492.268 147.785 492.084 147.75 491.917 147.672C491.749 147.594 491.604 147.476 491.493 147.329C491.382 147.182 491.309 147.009 491.281 146.827C491.252 146.644 491.269 146.458 491.33 146.284L492.148 143.078C492.262 142.667 492.504 142.303 492.838 142.038C493.172 141.774 493.581 141.621 494.007 141.603H497.213C497.397 141.59 497.581 141.622 497.748 141.698C497.916 141.774 498.062 141.89 498.174 142.036C498.285 142.183 498.358 142.355 498.387 142.537C498.415 142.718 498.397 142.904 498.335 143.078L497.518 146.284C497.404 146.696 497.163 147.062 496.829 147.33C496.495 147.597 496.086 147.753 495.658 147.774Z" fill="#CAE5FF"/>
<path d="M506.062 147.775H502.856C502.673 147.782 502.491 147.745 502.326 147.666C502.161 147.587 502.017 147.469 501.908 147.322C501.799 147.175 501.728 147.004 501.7 146.823C501.673 146.642 501.69 146.457 501.75 146.284L502.552 143.078C502.668 142.669 502.911 142.306 503.244 142.042C503.578 141.777 503.986 141.624 504.411 141.603H507.617C507.799 141.593 507.981 141.627 508.147 141.704C508.312 141.781 508.456 141.898 508.566 142.044C508.675 142.19 508.747 142.361 508.774 142.541C508.802 142.722 508.784 142.906 508.723 143.078L507.922 146.284C507.805 146.695 507.564 147.06 507.23 147.327C506.897 147.594 506.489 147.751 506.062 147.775Z" fill="#CAE5FF"/>
<path d="M516.449 147.775H513.243C513.06 147.782 512.878 147.745 512.713 147.666C512.548 147.587 512.404 147.469 512.295 147.322C512.186 147.175 512.115 147.004 512.087 146.823C512.06 146.642 512.077 146.457 512.137 146.284L512.955 143.078C513.066 142.669 513.305 142.305 513.636 142.04C513.967 141.775 514.374 141.622 514.798 141.603H518.004C518.186 141.594 518.368 141.629 518.534 141.706C518.699 141.783 518.844 141.899 518.954 142.044C519.065 142.19 519.138 142.36 519.168 142.54C519.198 142.72 519.184 142.905 519.126 143.078L518.309 146.284C518.192 146.695 517.951 147.06 517.617 147.327C517.284 147.594 516.876 147.751 516.449 147.775Z" fill="#CAE5FF"/>
<path d="M493.222 157.569H490.016C489.833 157.577 489.651 157.539 489.486 157.46C489.321 157.381 489.177 157.263 489.068 157.116C488.959 156.969 488.888 156.798 488.86 156.617C488.833 156.436 488.85 156.251 488.91 156.078L489.727 152.872C489.834 152.459 490.071 152.09 490.403 151.822C490.735 151.553 491.144 151.399 491.571 151.381H494.777C494.96 151.375 495.142 151.413 495.307 151.492C495.472 151.57 495.616 151.688 495.726 151.834C495.836 151.981 495.91 152.151 495.94 152.332C495.97 152.513 495.956 152.698 495.899 152.872L495.081 156.078C494.967 156.49 494.726 156.856 494.393 157.124C494.059 157.392 493.649 157.547 493.222 157.569Z" fill="#CAE5FF"/>
<path d="M490.609 167.989H487.403C487.22 167.996 487.038 167.959 486.873 167.88C486.708 167.801 486.564 167.683 486.455 167.536C486.346 167.389 486.275 167.218 486.247 167.037C486.22 166.856 486.237 166.671 486.297 166.498L487.115 163.292C487.221 162.878 487.458 162.51 487.79 162.242C488.122 161.973 488.531 161.819 488.958 161.801H492.164C492.347 161.795 492.529 161.832 492.694 161.911C492.859 161.99 493.003 162.108 493.113 162.254C493.224 162.4 493.297 162.571 493.327 162.752C493.357 162.932 493.343 163.118 493.286 163.292L492.468 166.498C492.354 166.91 492.113 167.276 491.78 167.544C491.446 167.811 491.036 167.967 490.609 167.989Z" fill="#CAE5FF"/>
<path d="M503.609 157.569H500.403C500.219 157.579 500.035 157.544 499.867 157.466C499.7 157.389 499.554 157.271 499.443 157.123C499.332 156.976 499.26 156.803 499.231 156.621C499.203 156.439 499.22 156.252 499.281 156.078L500.098 152.872C500.21 152.459 500.45 152.091 500.785 151.823C501.119 151.555 501.53 151.401 501.958 151.381H505.164C505.348 151.371 505.532 151.406 505.699 151.484C505.867 151.562 506.012 151.68 506.123 151.827C506.234 151.974 506.307 152.147 506.335 152.329C506.364 152.512 506.347 152.698 506.286 152.872L505.468 156.078C505.357 156.492 505.116 156.859 504.782 157.127C504.448 157.395 504.037 157.55 503.609 157.569Z" fill="#CAE5FF"/>
<path d="M499.057 175.827H495.851C495.667 175.84 495.483 175.808 495.316 175.732C495.148 175.656 495.002 175.54 494.89 175.394C494.779 175.247 494.706 175.075 494.678 174.893C494.649 174.712 494.667 174.526 494.729 174.352L495.546 171.146C495.66 170.734 495.901 170.368 496.235 170.1C496.569 169.833 496.978 169.677 497.406 169.655H500.612C500.795 169.649 500.977 169.687 501.142 169.766C501.307 169.845 501.451 169.962 501.561 170.108C501.671 170.255 501.745 170.426 501.775 170.606C501.805 170.787 501.791 170.972 501.734 171.146L500.916 174.352C500.799 174.762 500.557 175.124 500.224 175.389C499.89 175.653 499.482 175.806 499.057 175.827Z" fill="#CAE5FF"/>
<path opacity="0.9" d="M497.005 261.955H389.605C389.348 261.947 389.096 261.88 388.868 261.761C388.639 261.642 388.441 261.473 388.287 261.267C388.133 261.06 388.028 260.822 387.978 260.569C387.929 260.317 387.937 260.056 388.002 259.807L398.037 221.336C398.127 220.975 398.332 220.653 398.621 220.419C398.911 220.184 399.268 220.05 399.64 220.037H507.04C507.298 220.048 507.55 220.117 507.778 220.238C508.006 220.358 508.204 220.529 508.358 220.736C508.512 220.944 508.617 221.183 508.666 221.437C508.715 221.69 508.707 221.951 508.643 222.201L498.608 260.673C498.515 261.031 498.308 261.349 498.02 261.58C497.731 261.811 497.375 261.943 497.005 261.955Z" fill="#BFD9FF"/>
<path d="M404.336 228.228H441.718" stroke="#A9C2FF" stroke-width="1.68375" stroke-linecap="round" stroke-linejoin="round"/>
<path d="M401.467 245.476H438.833" stroke="#A9C2FF" stroke-width="1.68375" stroke-linecap="round" stroke-linejoin="round"/>
<path d="M417.177 238.968H454.558" stroke="#A9C2FF" stroke-width="1.68375" stroke-linecap="round" stroke-linejoin="round"/>
<path d="M403.391 233.983H414.595" stroke="#A9C2FF" stroke-width="1.68375" stroke-linecap="round" stroke-linejoin="round"/>
<path d="M401.852 238.968H413.057" stroke="#A9C2FF" stroke-width="1.68375" stroke-linecap="round" stroke-linejoin="round"/>
<path d="M447.649 228.228H460.97" stroke="#A9C2FF" stroke-width="1.68375" stroke-linecap="round" stroke-linejoin="round"/>
<path d="M454.173 253.572H434.28C434.258 253.57 434.236 253.563 434.216 253.552C434.196 253.541 434.178 253.526 434.165 253.508C434.151 253.49 434.141 253.469 434.136 253.447C434.131 253.425 434.131 253.402 434.136 253.379L435.034 249.965C435.041 249.932 435.059 249.903 435.086 249.883C435.112 249.863 435.145 249.852 435.178 249.853H455.071C455.095 249.851 455.118 249.856 455.14 249.866C455.162 249.876 455.18 249.891 455.195 249.91C455.209 249.929 455.218 249.951 455.222 249.975C455.225 249.999 455.223 250.023 455.215 250.045L454.317 253.459C454.31 253.492 454.292 253.521 454.265 253.541C454.239 253.562 454.206 253.572 454.173 253.572V253.572Z" stroke="#84AEE5" stroke-width="0.56125" stroke-miterlimit="10"/>
<path d="M429.456 253.571H409.563C409.539 253.573 409.515 253.568 409.493 253.558C409.472 253.548 409.453 253.533 409.439 253.514C409.425 253.495 409.415 253.473 409.412 253.449C409.408 253.426 409.41 253.402 409.418 253.379L410.316 249.965C410.318 249.948 410.323 249.932 410.332 249.917C410.34 249.902 410.351 249.889 410.365 249.878C410.378 249.868 410.393 249.86 410.41 249.856C410.426 249.851 410.443 249.85 410.46 249.853H430.353C430.377 249.851 430.401 249.856 430.422 249.866C430.444 249.876 430.463 249.891 430.477 249.91C430.491 249.929 430.501 249.951 430.504 249.975C430.508 249.998 430.505 250.022 430.498 250.045L429.6 253.459C429.59 253.49 429.571 253.518 429.545 253.538C429.519 253.558 429.488 253.57 429.456 253.571V253.571Z" stroke="#84AEE5" stroke-width="0.56125" stroke-miterlimit="10"/>
<path d="M489.135 248.618C488.109 247.256 483.973 246.262 482.835 244.915C482.316 243.978 482.157 242.884 482.386 241.838C482.737 241.629 483.056 241.369 483.332 241.068C483.752 240.438 484.127 239.78 484.454 239.097C484.515 239.162 484.59 239.213 484.673 239.246C484.756 239.28 484.846 239.294 484.935 239.289C485.48 239.289 487.548 236.468 487.003 235.811C486.698 235.442 486.217 235.811 485.849 236.115C486.394 234.865 486.778 233.903 486.778 233.903C486.778 233.743 486.875 233.582 486.907 233.422C487.149 232.728 487.217 231.985 487.105 231.259C486.993 230.532 486.705 229.844 486.265 229.255C485.825 228.666 485.247 228.195 484.581 227.881C483.916 227.568 483.185 227.423 482.45 227.459C480.738 227.542 479.096 228.163 477.758 229.234C476.42 230.305 475.453 231.77 474.996 233.422L474.9 233.903C474.9 233.903 474.804 234.865 474.724 236.115C474.532 235.762 474.195 235.442 473.714 235.811C472.848 236.468 473.522 239.273 474.051 239.289C474.258 239.287 474.46 239.219 474.628 239.097C474.621 239.756 474.664 240.415 474.756 241.068C474.926 241.441 475.192 241.761 475.525 241.998C475.149 243.122 474.486 244.127 473.602 244.915C471.791 246.262 467.19 247.256 465.459 248.618C464.027 250.208 462.936 252.074 462.253 254.101H489.503C489.632 253.395 490.048 249.837 489.135 248.618Z" fill="#387AB6"/>
<path d="M351.39 248.218H263.226C255.5 248.218 250.787 241.95 252.71 234.208C254.65 226.481 262.473 220.214 270.215 220.214H358.379C366.105 220.214 370.818 226.481 368.895 234.208C366.955 241.95 359.116 248.218 351.39 248.218Z" fill="white"/>
<path d="M272.604 237.878L268.837 239.626C268.468 239.802 268.179 239.529 268.324 239.177L269.927 235.458C269.959 235.399 269.976 235.333 269.976 235.266C269.976 235.198 269.959 235.132 269.927 235.073L267.875 232.444C267.682 232.188 267.875 231.771 268.292 231.707L272.171 231.162C272.245 231.155 272.317 231.131 272.381 231.092C272.445 231.053 272.499 231 272.539 230.937L275.056 227.555C275.297 227.235 275.745 227.235 275.826 227.555L276.659 230.937C276.673 230.997 276.705 231.051 276.751 231.092C276.797 231.132 276.855 231.157 276.916 231.162L280.522 231.707C280.859 231.707 280.891 232.188 280.522 232.444L277.172 235.073C277.11 235.119 277.059 235.176 277.02 235.242C276.981 235.308 276.957 235.382 276.948 235.458L276.659 239.177C276.659 239.529 276.194 239.802 275.922 239.626L273.02 237.878C272.956 237.843 272.885 237.825 272.812 237.825C272.739 237.825 272.667 237.843 272.604 237.878Z" fill="#FFA402"/>
<path d="M291.214 237.878L287.431 239.626C287.078 239.802 286.774 239.529 286.934 239.177L288.537 235.458C288.572 235.4 288.591 235.333 288.591 235.266C288.591 235.198 288.572 235.131 288.537 235.073L286.501 232.444C286.309 232.188 286.501 231.771 286.918 231.707L290.781 231.162C290.857 231.153 290.931 231.128 290.997 231.089C291.063 231.051 291.12 230.999 291.166 230.937L293.682 227.555C293.923 227.235 294.372 227.235 294.452 227.555L295.285 230.937C295.296 230.998 295.328 231.054 295.374 231.095C295.421 231.136 295.48 231.159 295.542 231.162L299.149 231.707C299.485 231.707 299.517 232.188 299.149 232.444L295.782 235.073C295.668 235.171 295.593 235.308 295.574 235.458L295.285 239.177C295.285 239.529 294.821 239.802 294.548 239.626L291.647 237.878C291.581 237.84 291.506 237.82 291.43 237.82C291.354 237.82 291.28 237.84 291.214 237.878Z" fill="#FFA402"/>
<path d="M309.825 237.878L306.042 239.626C305.689 239.802 305.384 239.529 305.529 239.177L307.132 235.458C307.167 235.4 307.186 235.333 307.186 235.266C307.186 235.198 307.167 235.131 307.132 235.073L305.08 232.444C304.887 232.188 305.08 231.771 305.513 231.707L309.376 231.162C309.452 231.153 309.525 231.128 309.591 231.089C309.658 231.051 309.715 230.999 309.761 230.937L312.277 227.555C312.518 227.235 312.966 227.235 313.047 227.555L313.864 230.937C313.878 231 313.913 231.056 313.962 231.096C314.011 231.137 314.073 231.16 314.137 231.162L317.727 231.707C318.064 231.707 318.112 232.188 317.727 232.444L314.361 235.073C314.299 235.117 314.248 235.175 314.212 235.241C314.176 235.308 314.156 235.382 314.153 235.458L313.864 239.177C313.864 239.529 313.399 239.802 313.127 239.626L310.225 237.878C310.164 237.846 310.095 237.829 310.025 237.829C309.955 237.829 309.886 237.846 309.825 237.878Z" fill="#FFA402"/>
<path d="M328.419 237.878L324.652 239.626C324.3 239.802 323.995 239.529 324.139 239.177L325.742 235.458C325.775 235.399 325.792 235.333 325.792 235.266C325.792 235.198 325.775 235.132 325.742 235.073L323.691 232.444C323.498 232.188 323.691 231.771 324.107 231.707L327.987 231.162C328.063 231.153 328.136 231.128 328.202 231.089C328.268 231.051 328.326 230.999 328.371 230.937L330.872 227.555C331.112 227.235 331.577 227.235 331.641 227.555L332.475 230.937C332.488 230.997 332.52 231.051 332.566 231.092C332.613 231.132 332.67 231.157 332.731 231.162L336.338 231.707C336.675 231.707 336.707 232.188 336.338 232.444L332.988 235.073C332.926 235.119 332.874 235.176 332.836 235.242C332.797 235.308 332.773 235.382 332.763 235.458L332.475 239.177C332.469 239.261 332.443 239.343 332.399 239.415C332.355 239.487 332.294 239.548 332.222 239.592C332.15 239.636 332.068 239.662 331.984 239.668C331.9 239.674 331.815 239.659 331.738 239.626L328.836 237.878C328.772 237.843 328.701 237.825 328.628 237.825C328.555 237.825 328.483 237.843 328.419 237.878Z" fill="#FFA402"/>
<path d="M347.03 237.878L343.247 239.626C342.894 239.802 342.59 239.529 342.75 239.177L344.353 235.458C344.385 235.399 344.402 235.333 344.402 235.266C344.402 235.198 344.385 235.132 344.353 235.073L342.301 232.444C342.109 232.188 342.301 231.771 342.718 231.707L346.597 231.162C346.671 231.153 346.742 231.128 346.805 231.089C346.869 231.05 346.924 230.999 346.966 230.937L349.482 227.555C349.723 227.235 350.172 227.235 350.252 227.555L351.085 230.937C351.099 230.997 351.131 231.051 351.177 231.092C351.223 231.132 351.281 231.157 351.342 231.162L354.949 231.707C355.285 231.707 355.317 232.188 354.949 232.444L351.598 235.073C351.537 235.119 351.485 235.176 351.446 235.242C351.408 235.308 351.383 235.382 351.374 235.458L351.085 239.177C351.085 239.529 350.621 239.802 350.348 239.626L347.495 237.878C347.425 237.834 347.345 237.811 347.262 237.811C347.18 237.811 347.099 237.834 347.03 237.878Z" fill="#C2D4D9"/>
<path d="M134.699 194.181C138.718 194.181 141.976 189.631 141.976 184.018C141.976 178.405 138.718 173.855 134.699 173.855C130.68 173.855 127.421 178.405 127.421 184.018C127.421 189.631 130.68 194.181 134.699 194.181Z" fill="#202F7C"/>
<path d="M135.789 184.9C135.789 184.9 156.099 207.341 156.099 210.948C156.099 214.555 149.478 214.042 149.478 214.042" stroke="#202F7C" stroke-width="1.71493" stroke-miterlimit="10"/>
<path d="M151.033 214.042C151.037 214.569 150.883 215.085 150.593 215.524C150.302 215.964 149.888 216.308 149.402 216.511C148.916 216.715 148.38 216.77 147.863 216.669C147.346 216.569 146.87 216.316 146.497 215.945C146.123 215.573 145.868 215.099 145.764 214.583C145.66 214.066 145.712 213.53 145.912 213.043C146.113 212.556 146.454 212.139 146.892 211.846C147.33 211.553 147.845 211.397 148.372 211.397C148.721 211.395 149.067 211.461 149.389 211.593C149.712 211.725 150.006 211.92 150.253 212.166C150.5 212.412 150.697 212.704 150.83 213.026C150.964 213.348 151.033 213.693 151.033 214.042Z" fill="#202F7C"/>
<path d="M99.6736 477.62C106.887 490.059 129.521 499.148 156.339 499.148C183.157 499.148 205.791 490.059 213.004 477.62H99.6736Z" fill="#9C31E9"/>
<path d="M252.663 413.774L239.069 476.482H230.75L238.316 415.297L252.663 413.774Z" fill="#A9A7E7"/>
<path d="M155.858 403.931H265.502C268.708 403.931 271.782 405.204 274.049 407.471C276.315 409.738 277.589 412.812 277.589 416.018V419.047H155.858V403.931Z" fill="#7A82CC"/>
<path d="M56.233 469.686L26.7862 327.982C26.5124 326.665 26.5355 325.303 26.8539 323.996C27.1723 322.688 27.7779 321.468 28.6269 320.424C29.4758 319.38 30.5467 318.539 31.7617 317.961C32.9767 317.382 34.3052 317.082 35.6507 317.082H133.144C135.749 317.082 138.273 317.98 140.294 319.624C142.314 321.267 143.706 323.557 144.237 326.107L174.084 469.686" fill="#A9A7E7"/>
<path d="M256.446 485.218H71.3171C68.276 485.219 65.3167 484.234 62.8832 482.41C60.4496 480.586 58.6731 478.023 57.82 475.104L56.217 469.686H256.446V485.218Z" fill="#A9A7E7"/>
<path d="M165.412 492.352H150.681V623.796H165.412V492.352Z" fill="#E2E7FF"/>
<path d="M165.412 516.717L150.681 528.611V492.352H165.412V516.717Z" fill="#9C31E9"/>
<path d="M164.947 604.208H159.561H158.215H152.829L97.6061 626.137H220.17L164.947 604.208Z" fill="#E2E7FF"/>
<path d="M39.7708 326.78H127.39" stroke="#4F57A0" stroke-width="1.55903" stroke-miterlimit="10"/>
<path d="M136.478 336.926L151.434 412.267" stroke="#4F57A0" stroke-width="1.55903" stroke-miterlimit="10"/>
<path d="M154.111 425.62L157.317 447.532" stroke="#4F57A0" stroke-width="1.55903" stroke-miterlimit="10"/>
<path d="M562.615 200.144H492.084C491.227 200.143 490.38 199.957 489.602 199.597C488.825 199.238 488.134 198.714 487.578 198.062C487.022 197.41 486.614 196.645 486.381 195.82C486.149 194.995 486.099 194.13 486.233 193.284L486.778 189.901C486.999 188.51 487.711 187.243 488.783 186.329C489.856 185.415 491.22 184.914 492.629 184.916H563.16C564.016 184.915 564.862 185.099 565.64 185.457C566.418 185.815 567.109 186.337 567.666 186.988C568.222 187.638 568.63 188.402 568.863 189.226C569.095 190.05 569.145 190.915 569.011 191.761L568.466 195.143C568.245 196.536 567.534 197.805 566.462 198.722C565.39 199.638 564.026 200.143 562.615 200.144Z" fill="#CAE5FF"/>
<path d="M495.018 192.658H555.931" stroke="white" stroke-width="3.11805" stroke-miterlimit="10"/>
<path d="M305.593 112.509H286.357C277.22 112.509 268.227 119.915 266.288 129.068C264.332 138.221 270.167 145.643 279.32 145.643H283.504C284.729 148.723 286.917 151.324 289.743 153.058C292.569 154.792 295.88 155.564 299.181 155.26C297.601 152.295 296.739 149.001 296.664 145.643H298.556C307.709 145.643 316.701 138.221 318.641 129.068C320.581 119.899 314.746 112.509 305.593 112.509Z" fill="#9C31E9"/>
<path d="M278.182 125.862H296.36" stroke="white" stroke-width="3.11805" stroke-miterlimit="10"/>
<path d="M276.659 133.075H306.17" stroke="white" stroke-width="3.11805" stroke-miterlimit="10"/>
</svg>
